<svg xmlns="http://www.w3.org/2000/svg" width="571.929" height="571.929" viewBox="0 0 571.929 571.929"><path fill="#00577B" stroke="#FFF" stroke-width="5" stroke-linejoin="bevel" stroke-miterlimit="10" d="M532.125 267.312L399.722 399.714l132.403 132.41z"/><path fill="#01B0F0" stroke="#FFF" stroke-width="5" stroke-linejoin="round" stroke-miterlimit="10" d="M532.125 2.5L399.722 134.902l132.403 132.41z"/><path fill="#4FC9F5" stroke="#FFF" stroke-width="5" stroke-linejoin="round" stroke-miterlimit="10" d="M2.5 2.5l132.41 132.402L267.312 2.5z"/><path fill="#01B0F0" stroke="#FFF" stroke-width="5" stroke-linejoin="bevel" stroke-miterlimit="10" d="M134.91 134.902l132.402 132.41 132.41-132.41z"/><path fill="#27BCF3" stroke="#FFF" stroke-width="5" stroke-linejoin="bevel" stroke-miterlimit="10" d="M399.722 134.902L267.312 2.5 134.91 134.902z"/><path fill="#0079AA" stroke="#FFF" stroke-width="5" stroke-linejoin="bevel" stroke-miterlimit="10" d="M267.312 267.312l132.41 132.402 132.403-132.402z"/><path fill="#0096D3" stroke="#FFF" stroke-width="5" stroke-linejoin="bevel" stroke-miterlimit="10" d="M532.125 267.312l-132.403-132.41-132.41 132.41z"/><path fill="#79201B" stroke="#FFF" stroke-width="5" stroke-linejoin="bevel" stroke-miterlimit="10" d="M39.804 304.625l132.402-132.41L39.804 39.804z"/><path fill="#F0453F" stroke="#FFF" stroke-width="5" stroke-linejoin="round" stroke-miterlimit="10" d="M39.804 569.43l132.402-132.395-132.402-132.41z"/><path fill="#F47F7D" stroke="#FFF" stroke-width="5" stroke-linejoin="round" stroke-miterlimit="10" d="M569.43 569.43L437.02 437.034 304.615 569.43z"/><path fill="#F0453F" stroke="#FFF" stroke-width="5" stroke-linejoin="bevel" stroke-miterlimit="10" d="M437.02 437.035l-132.404-132.41-132.41 132.41z"/><path fill="#F2625D" stroke="#FFF" stroke-width="5" stroke-linejoin="bevel" stroke-miterlimit="10" d="M172.206 437.035l132.41 132.394L437.02 437.034z"/><path fill="#A42D26" stroke="#FFF" stroke-width="5" stroke-linejoin="bevel" stroke-miterlimit="10" d="M304.616 304.625l-132.41-132.41-132.402 132.41z"/><path fill="#CC382F" stroke="#FFF" stroke-width="5" stroke-linejoin="bevel" stroke-miterlimit="10" d="M39.804 304.625l132.402 132.41 132.41-132.41z"/></svg>